<svg id="Layer_1" enable-background="new 0 0 512 512" height="512" viewBox="0 0 512 512" width="512" xmlns="http://www.w3.org/2000/svg"><g><g><path d="m347.778 415.997h-183.556v-43.131c0-30.018 24.335-54.353 54.353-54.353h74.849c30.018 0 54.353 24.335 54.353 54.353v43.131z" fill="#f7f5f0"/><path d="m272 415.997-10.001-42.848h-5.998l-.001.003v-.003h-5.998l-10.001 42.848z" fill="#17171d"/><path d="m265.549 415.997h82.229v-43.131c0-27.138-19.89-49.626-45.886-53.693z" fill="#1093c6"/><path d="m301.891 319.173-5.991 15.961c28.868 1.295 51.877 25.102 51.877 54.29v-16.559c.001-27.137-19.889-49.625-45.886-53.692z" fill="#1bb9dd"/><path d="m246.451 415.997h-82.229v-43.131c0-27.138 19.89-49.626 45.886-53.693z" fill="#1093c6"/><path d="m216.1 335.134-5.991-15.961c-25.996 4.067-45.886 26.555-45.886 53.693v16.559c-.001-29.188 23.008-52.995 51.877-54.291z" fill="#1bb9dd"/><path d="m305.385 319.85c-3.85-.865-7.849-1.337-11.96-1.337h-37.423v32.043h-.002l49.385 19.794z" fill="#f7f5f0"/><path d="m206.615 319.85c3.85-.865 7.849-1.337 11.96-1.337h37.423v32.043h.002l-49.385 19.794z" fill="#f7f5f0"/><circle cx="256" cy="323.677" fill="#eaa178" r="26.88"/><path d="m256 322.324c-39.765 0-72-32.235-72-72v-87.999h144v87.999c0 39.765-32.236 72-72 72z" fill="#ffcca6"/><path d="m223.999 240.668c-5.655 0-10.239-4.584-10.239-10.239v-8.067c0-5.655 4.584-10.239 10.239-10.239 5.655 0 10.239 4.584 10.239 10.239v8.067c0 5.655-4.584 10.239-10.239 10.239z" fill="#17171d"/><path d="m288 240.668c-5.655 0-10.239-4.584-10.239-10.239v-8.067c0-5.655 4.584-10.239 10.239-10.239 5.655 0 10.239 4.584 10.239 10.239v8.067c0 5.655-4.584 10.239-10.239 10.239z" fill="#17171d"/><path d="m184 214.049c20.732 4.345 42.323 1.614 61.321-7.757l42.68-21.053 39.999 28.81v-51.724h-144z" fill="#f4ad7d"/><path d="m255.999 266.324h-32c.001 13.21 13.299 26.42 32.001 26.42v-.001.001c18.702 0 32.001-13.21 32.001-26.42z" fill="#e50707"/><path d="m227.5 278.047h57c2.008-3.257 3.215-6.811 3.454-10.398.014-.442.047-.883.047-1.325h-32.002-32c0 .442.033.882.047 1.324.239 3.588 1.446 7.142 3.454 10.399z" fill="#fff"/><g><path d="m288.001 170.325-42.68 21.053c-18.997 9.371-40.588 12.102-61.32 7.757l-15.564 10.703v-54.113c1.286-28.348 22.545-55.855 57.224-58.714 20.369-1.679 42.395-1.28 64.252 1.315 33.807 4.013 55.268 29.051 55.268 58.517v54.57l-17.181-12.278z" fill="#f4aa40"/></g><path d="m289.912 98.325c-21.857-2.594-43.882-2.994-64.252-1.315-34.679 2.859-55.938 30.365-57.224 58.714v16.619c1.286-28.348 22.545-55.855 57.224-58.714 20.37-1.679 42.395-1.28 64.252 1.315 33.807 4.013 55.268 29.051 55.268 58.517v-16.619c0-29.466-21.461-54.504-55.268-58.517z" fill="#f9ce64"/><path d="m157.907 230.782c0 14.411 11.682 26.093 26.093 26.093v-52.186c-14.41 0-26.093 11.682-26.093 26.093z" fill="#eaa178"/><path d="m354.093 230.782c0 14.411-11.682 26.093-26.093 26.093v-52.186c14.41 0 26.093 11.682 26.093 26.093z" fill="#eaa178"/><path d="m292.368 383.081h41.059v16.074h-41.059z" fill="#f4aa40"/><path d="m256 350.556-16.001 6.414 10.003 16.179h5.997v-.004l.001.004h5.998l10.002-16.179z" fill="#17171d"/></g><g fill="#17171d"><path d="m306.306 315.961c-.015-.004-.029-.011-.044-.014-.045-.01-.09-.017-.135-.027-.998-.222-2.002-.421-3.014-.591-.019-.003-.039-.007-.058-.01-.182-.03-.362-.069-.545-.098-.086-.014-.17-.006-.256-.014-1.919-.294-3.846-.506-5.773-.608 18.545-11.722 31.685-31.231 34.793-53.905 15.058-1.637 26.819-14.425 26.819-29.911 0-8.341-3.413-15.898-8.913-21.354v-52.586c0-32.683-24.178-58.38-58.796-62.489-21.764-2.583-44.259-3.042-65.052-1.329-38.256 3.154-59.59 33.838-60.891 62.519-.002.061-.004.121-.004.181v52.22c-6.438 5.523-10.529 13.709-10.529 22.838 0 15.487 11.761 28.274 26.819 29.911 3.109 22.674 16.248 42.184 34.793 53.905-1.928.103-3.856.314-5.776.609-.085.008-.168 0-.253.014-.182.029-.362.067-.543.098-.022.004-.043.008-.065.012-1.009.169-2.011.368-3.007.589-.046.01-.092.017-.138.027-.016.003-.029.01-.045.014-12.108 2.736-23.114 9.308-31.304 18.793-9.136 10.581-14.167 24.116-14.167 38.112v43.131c0 2.209 1.791 4 4 4h82.229.001 19.097 82.229c2.209 0 4-1.791 4-4v-43.131c0-13.996-5.031-27.531-14.167-38.112-8.19-9.486-19.197-16.058-31.305-18.794zm-35.885 75.672-4.152-17.786 7.365-11.913 6.897 2.764zm-7.644 20.364h-13.554l-2.578-6.868 6.531-27.98h2.701.122.001.128 2.696l6.531 27.979zm-31.308-47.3 6.896-2.764 7.366 11.914-4.151 17.786zm-20.854-41.545c2.646-.424 5.313-.639 7.96-.639h6.579c-.014.388-.034.775-.034 1.164 0 12.284 7.212 22.914 17.623 27.883l-4.232 1.696h-.001l-27.895 11.181zm68.239-.345c.011.29.025.579.025.87 0 12.616-10.264 22.879-22.879 22.879-12.616 0-22.879-10.264-22.879-22.879 0-.29.014-.58.025-.87 7.217 2.281 14.893 3.517 22.854 3.517s15.637-1.237 22.854-3.517zm-19.086 46.342h-3.624c-.048-.002-.096 0-.143 0 0 0 0 0-.001 0-.047 0-.093-.002-.14 0h-3.628l-6.329-10.236 10.097-4.047 10.097 4.047zm9.489-17.589c10.41-4.97 17.622-15.599 17.622-27.883 0-.389-.019-.776-.034-1.164h6.579c2.648 0 5.315.214 7.961.639v41.286zm80.836-120.778c0 10.817-7.814 19.843-18.093 21.73v-2.188-41.273c1.928.354 3.77.959 5.489 1.781l5.365 3.834c.188.135.387.247.591.346 4.096 4.012 6.648 9.596 6.648 15.77zm-177.657-74.965c1.182-25.161 19.941-52.05 53.552-54.82 20.269-1.671 42.21-1.221 63.452 1.3 30.463 3.616 51.739 26.046 51.739 54.545v46.795l-10.842-7.747-39.999-28.81c-.693-.499-1.514-.754-2.338-.754-.603 0-1.209.136-1.769.413l-42.681 21.053c-18.109 8.933-38.966 11.572-58.73 7.429-.001 0-.003 0-.005-.001-.143-.03-.294-.033-.442-.046-.123-.012-.246-.037-.369-.037-.002 0-.003-.001-.005-.001-.108 0-.208.023-.314.032-.161.013-.322.017-.48.048-.532.107-1.025.32-1.458.616-.005.003-.01.005-.015.008l-9.297 6.394v-46.417zm7.564 96.695c-10.28-1.887-18.093-10.913-18.093-21.73 0-7.39 3.65-13.94 9.239-17.953l.323-.222c2.518-1.741 5.408-2.982 8.531-3.555v41.273zm8-2.188v-45.636-.769c20.049 3.159 40.849.043 59.09-8.955l40.524-19.99 36.385 26.207v3.506 45.636c0 37.495-30.504 68-67.999 68s-68-30.503-68-67.999zm-19.778 161.673v-39.131c0-22.132 14.05-41.071 34.393-47.775v45.259c0 1.328.659 2.569 1.759 3.313.671.454 1.454.687 2.242.687.503 0 1.008-.095 1.488-.287l15.938-6.388 14.693 39.145c.001.003.002.006.003.009l1.94 5.169h-72.456zm175.556 0h-72.455l1.94-5.168c.002-.004.003-.008.005-.012l14.692-39.142 15.938 6.388c.48.192.985.287 1.488.287.788 0 1.57-.233 2.242-.687 1.1-.744 1.759-1.985 1.759-3.313v-45.26c20.343 6.704 34.392 25.643 34.392 47.775v39.132z"/><path d="m234.238 230.429v-8.067c0-5.655-4.584-10.239-10.239-10.239s-10.239 4.584-10.239 10.239v8.067c0 5.655 4.584 10.239 10.239 10.239s10.239-4.584 10.239-10.239z"/><path d="m288 240.668c5.655 0 10.239-4.584 10.239-10.239v-8.067c0-5.655-4.584-10.239-10.239-10.239s-10.239 4.584-10.239 10.239v8.067c0 5.655 4.584 10.239 10.239 10.239z"/><path d="m292.001 266.324c0-2.209-1.791-4-4-4h-64.003c-1.061 0-2.078.421-2.829 1.172-.75.75-1.171 1.768-1.171 2.829.001 14.69 14.468 30.419 36.001 30.419 21.536 0 36.002-15.729 36.002-30.42zm-8.498 4c-.484 1.959-1.331 3.887-2.471 5.723h-50.063c-1.14-1.836-1.987-3.765-2.471-5.723zm-49.402 9.723h43.8c-4.923 5.077-12.549 8.697-21.9 8.697-9.352 0-16.978-3.62-21.9-8.697z"/><path d="m288.368 383.081v16.074c0 2.209 1.791 4 4 4h41.06c2.209 0 4-1.791 4-4v-16.074c0-2.209-1.791-4-4-4h-41.06c-2.209 0-4 1.791-4 4zm8 4h33.06v8.074h-33.06z"/></g></g></svg>